<?xml version="1.0" encoding="UTF-8"?>
<svg id="Layer_1" data-name="Layer 1" xmlns="http://www.w3.org/2000/svg" xmlns:xlink="http://www.w3.org/1999/xlink" viewBox="0 0 538 543">
  <defs>
    <style>
      .cls-1 {
        fill: #fff;
        opacity: 0;
      }

      .cls-2 {
        fill: url(#Triangle_yellow_gradient);
      }

      .cls-3 {
        fill: url(#radial-gradient);
      }
    </style>
    <radialGradient id="radial-gradient" cx="269.5" cy="272" fx="269.5" fy="272" r="257.5" gradientUnits="userSpaceOnUse">
      <stop offset=".78" stop-color="#f5c400"/>
      <stop offset=".84" stop-color="#f5c100"/>
      <stop offset=".89" stop-color="#f5b700"/>
      <stop offset=".93" stop-color="#f5a700"/>
      <stop offset=".96" stop-color="#f59100"/>
      <stop offset="1" stop-color="#f57400"/>
      <stop offset="1" stop-color="#f57200"/>
    </radialGradient>
    <linearGradient id="Triangle_yellow_gradient" data-name="Triangle yellow gradient" x1="47.26" y1="336.82" x2="491.12" y2="336.82" gradientUnits="userSpaceOnUse">
      <stop offset=".1" stop-color="#f5c400"/>
      <stop offset="1" stop-color="#f55d00"/>
    </linearGradient>
  </defs>
  <g>
    <path class="cls-1" d="M269.5,532.5c-69.58,0-135-27.1-184.2-76.3C36.1,407,9,341.58,9,272S36.1,137,85.3,87.8C134.5,38.6,199.92,11.5,269.5,11.5s135,27.1,184.2,76.3c49.2,49.2,76.3,114.62,76.3,184.2s-27.1,135-76.3,184.2c-49.2,49.2-114.62,76.3-184.2,76.3Z"/>
    <path d="M269.5,16.5c34.5,0,67.96,6.75,99.45,20.07,30.42,12.87,57.75,31.29,81.22,54.76,23.47,23.47,41.89,50.79,54.76,81.22,13.32,31.49,20.07,64.95,20.07,99.45s-6.75,67.96-20.07,99.45c-12.87,30.42-31.29,57.75-54.76,81.22s-50.79,41.89-81.22,54.76c-31.49,13.32-64.95,20.07-99.45,20.07s-67.96-6.75-99.45-20.07c-30.42-12.87-57.75-31.29-81.22-54.76s-41.89-50.79-54.76-81.22c-13.32-31.49-20.07-64.95-20.07-99.45s6.75-67.96,20.07-99.45c12.87-30.42,31.29-57.75,54.76-81.22,23.47-23.47,50.79-41.89,81.22-54.76,31.49-13.32,64.95-20.07,99.45-20.07m0-10C122.87,6.5,4,125.37,4,272s118.87,265.5,265.5,265.5,265.5-118.87,265.5-265.5S416.13,6.5,269.5,6.5h0Z"/>
  </g>
  <g>
    <circle class="cls-1" cx="269.5" cy="272" r="257.5"/>
    <path class="cls-3" d="M269.5,94.5c47.41,0,91.99,18.46,125.51,51.99,33.53,33.53,51.99,78.1,51.99,125.51s-18.46,91.99-51.99,125.51-78.1,51.99-125.51,51.99-91.99-18.46-125.51-51.99-51.99-78.1-51.99-125.51,18.46-91.99,51.99-125.51c33.53-33.53,78.1-51.99,125.51-51.99m0-80C127.29,14.5,12,129.79,12,272s115.29,257.5,257.5,257.5,257.5-115.29,257.5-257.5S411.71,14.5,269.5,14.5h0Z"/>
  </g>
  <g>
    <polygon class="cls-1" points="491.12 142.89 382.99 336.82 274.87 530.75 161.06 340.19 47.26 149.63 269.19 146.26 491.12 142.89"/>
    <path class="cls-2" d="M388.1,204.46l-57.51,103.14-57.51,103.14-60.51-101.32-60.54-101.38,118.07-1.79,118-1.79m103.03-61.57l-221.93,3.37-221.93,3.37,113.8,190.56,113.8,190.56,108.13-193.93,108.13-193.93h0Z"/>
  </g>
  <g>
    <polygon class="cls-1" points="49.83 151.14 488.5 144.49 274.77 527.81 49.83 151.14"/>
    <path d="M485.92,146.03l-105.6,189.39-105.6,189.39-111.14-186.1L52.45,152.6l216.74-3.29,216.73-3.29m5.15-3.08l-221.93,3.37-221.93,3.37,113.8,190.56,113.8,190.56,108.13-193.93,108.13-193.93h0Z"/>
  </g>
  <g>
    <polygon class="cls-1" points="152.83 207.31 388.93 203.31 273.79 409.47 152.83 207.31"/>
    <path d="M386.35,204.85l-56.3,100.8-56.31,100.82-59.15-98.85-59.15-98.85,115.47-1.96,115.44-1.96m5.16-3.09l-120.65,2.05-120.65,2.05,61.81,103.3,61.81,103.3,58.84-105.35,58.84-105.35h0Z"/>
  </g>
</svg>